<svg xmlns="http://www.w3.org/2000/svg" viewBox="0 0 64 64">
  <rect width="64" height="64" rx="14" fill="#173d35"/>
  <path d="M18 13h25a7 7 0 0 1 7 7v31H22a8 8 0 0 1-8-8V17a4 4 0 0 1 4-4z" fill="#f7fbf9"/>
  <path d="M22 13v30a5 5 0 0 0 5 5h23" fill="none" stroke="#2f7d68" stroke-width="4" stroke-linecap="round"/>
  <path d="M26 24h15M26 33h18M26 42h12" stroke="#3e6f97" stroke-width="4" stroke-linecap="round"/>
  <path d="M18 13h7v35h-3a8 8 0 0 1-8-8V17a4 4 0 0 1 4-4z" fill="#d9efe7"/>
</svg>
